<mxfile host="app.diagrams.net" modified="2021-07-12T06:18:21.803Z" agent="5.0 (Windows NT 10.0; Win64; x64) AppleWebKit/537.36 (KHTML, like Gecko) Chrome/91.0.4472.124 Safari/537.36" etag="Bk9IN-lOXbhTF0kiBFkN" version="14.8.5" type="github">
  <diagram id="HsAwxhYzKf-S3YLzliP9" name="Page-1">
    <mxGraphModel dx="915" dy="825" grid="1" gridSize="10" guides="1" tooltips="1" connect="1" arrows="1" fold="1" page="1" pageScale="1" pageWidth="827" pageHeight="1169" math="0" shadow="0">
      <root>
        <mxCell id="0" />
        <mxCell id="1" parent="0" />
        <mxCell id="honk8JcK8nrwYl9ZCn5K-1" value="Người dùng" style="swimlane;whiteSpace=wrap" parent="1" vertex="1">
          <mxGeometry x="164.5" y="128" width="280" height="812" as="geometry" />
        </mxCell>
        <mxCell id="honk8JcK8nrwYl9ZCn5K-2" value="" style="ellipse;shape=startState;fillColor=#000000;strokeColor=#ff0000;" parent="honk8JcK8nrwYl9ZCn5K-1" vertex="1">
          <mxGeometry x="100" y="40" width="30" height="30" as="geometry" />
        </mxCell>
        <mxCell id="honk8JcK8nrwYl9ZCn5K-3" value="" style="edgeStyle=elbowEdgeStyle;elbow=horizontal;verticalAlign=bottom;endArrow=open;endSize=8;strokeColor=#FF0000;endFill=1;rounded=0" parent="honk8JcK8nrwYl9ZCn5K-1" source="honk8JcK8nrwYl9ZCn5K-2" target="honk8JcK8nrwYl9ZCn5K-4" edge="1">
          <mxGeometry x="100" y="40" as="geometry">
            <mxPoint x="115" y="110" as="targetPoint" />
          </mxGeometry>
        </mxCell>
        <mxCell id="honk8JcK8nrwYl9ZCn5K-4" value="Truy cập Fshop" style="" parent="honk8JcK8nrwYl9ZCn5K-1" vertex="1">
          <mxGeometry x="60" y="110" width="110" height="50" as="geometry" />
        </mxCell>
        <mxCell id="honk8JcK8nrwYl9ZCn5K-5" value="Nhấn vào icon &#xa;giỏ hàng" style="" parent="honk8JcK8nrwYl9ZCn5K-1" vertex="1">
          <mxGeometry x="60" y="202" width="110" height="50" as="geometry" />
        </mxCell>
        <mxCell id="honk8JcK8nrwYl9ZCn5K-6" value="" style="endArrow=open;strokeColor=#FF0000;endFill=1;rounded=0" parent="honk8JcK8nrwYl9ZCn5K-1" source="honk8JcK8nrwYl9ZCn5K-4" target="honk8JcK8nrwYl9ZCn5K-5" edge="1">
          <mxGeometry relative="1" as="geometry" />
        </mxCell>
        <mxCell id="honk8JcK8nrwYl9ZCn5K-33" value="Nhấn button &#xa;đặt hàng" style="" parent="honk8JcK8nrwYl9ZCn5K-1" vertex="1">
          <mxGeometry x="60" y="352" width="110" height="50" as="geometry" />
        </mxCell>
        <mxCell id="honk8JcK8nrwYl9ZCn5K-7" value="Giao diện" style="swimlane;whiteSpace=wrap" parent="1" vertex="1">
          <mxGeometry x="444.5" y="128" width="280" height="812" as="geometry" />
        </mxCell>
        <mxCell id="honk8JcK8nrwYl9ZCn5K-8" value="" style="edgeStyle=orthogonalEdgeStyle;rounded=0;orthogonalLoop=1;jettySize=auto;html=1;" parent="honk8JcK8nrwYl9ZCn5K-7" source="honk8JcK8nrwYl9ZCn5K-9" target="honk8JcK8nrwYl9ZCn5K-10" edge="1">
          <mxGeometry relative="1" as="geometry" />
        </mxCell>
        <mxCell id="honk8JcK8nrwYl9ZCn5K-9" value="Trang chủ Fshop" style="" parent="honk8JcK8nrwYl9ZCn5K-7" vertex="1">
          <mxGeometry x="85" y="592" width="110" height="50" as="geometry" />
        </mxCell>
        <mxCell id="honk8JcK8nrwYl9ZCn5K-10" value="" style="ellipse;shape=startState;fillColor=#000000;strokeColor=#ff0000;" parent="honk8JcK8nrwYl9ZCn5K-7" vertex="1">
          <mxGeometry x="125" y="732" width="30" height="30" as="geometry" />
        </mxCell>
        <mxCell id="honk8JcK8nrwYl9ZCn5K-11" value="" style="endArrow=open;strokeColor=#FF0000;endFill=1;rounded=0;exitX=0.5;exitY=1;exitDx=0;exitDy=0;entryX=0.5;entryY=0;entryDx=0;entryDy=0;" parent="honk8JcK8nrwYl9ZCn5K-7" source="honk8JcK8nrwYl9ZCn5K-9" target="honk8JcK8nrwYl9ZCn5K-10" edge="1">
          <mxGeometry relative="1" as="geometry">
            <mxPoint x="135.5" y="572" as="sourcePoint" />
            <mxPoint x="135.5" y="614" as="targetPoint" />
          </mxGeometry>
        </mxCell>
        <mxCell id="honk8JcK8nrwYl9ZCn5K-32" value="Trang giỏ hàng" style="" parent="honk8JcK8nrwYl9ZCn5K-7" vertex="1">
          <mxGeometry x="85" y="202" width="110" height="50" as="geometry" />
        </mxCell>
        <mxCell id="honk8JcK8nrwYl9ZCn5K-14" value="Hệ thống" style="swimlane;whiteSpace=wrap" parent="1" vertex="1">
          <mxGeometry x="724.5" y="130" width="280" height="810" as="geometry" />
        </mxCell>
        <mxCell id="honk8JcK8nrwYl9ZCn5K-19" value="Tạo các chi tiết &#xa;đơn hàng theo sp" style="" parent="honk8JcK8nrwYl9ZCn5K-14" vertex="1">
          <mxGeometry x="75.5" y="510" width="110" height="50" as="geometry" />
        </mxCell>
        <mxCell id="honk8JcK8nrwYl9ZCn5K-20" value="" style="endArrow=open;strokeColor=#FF0000;endFill=1;rounded=0;exitX=0.5;exitY=1;exitDx=0;exitDy=0;entryX=0.5;entryY=0;entryDx=0;entryDy=0;" parent="honk8JcK8nrwYl9ZCn5K-14" target="honk8JcK8nrwYl9ZCn5K-19" edge="1" source="f_JBropepbeSfBX6f8aN-1">
          <mxGeometry relative="1" as="geometry">
            <mxPoint x="140" y="496" as="sourcePoint" />
            <mxPoint x="146.5" y="542" as="targetPoint" />
          </mxGeometry>
        </mxCell>
        <mxCell id="f_JBropepbeSfBX6f8aN-1" value="Tạo đơn hàng&#xa;với trạng thái là&#xa;&quot;mới tạo&quot;" style="" vertex="1" parent="honk8JcK8nrwYl9ZCn5K-14">
          <mxGeometry x="75.5" y="400" width="110" height="50" as="geometry" />
        </mxCell>
        <mxCell id="honk8JcK8nrwYl9ZCn5K-29" value="" style="endArrow=open;strokeColor=#FF0000;endFill=1;rounded=0;exitX=1;exitY=0.5;exitDx=0;exitDy=0;entryX=0;entryY=0.5;entryDx=0;entryDy=0;" parent="1" source="honk8JcK8nrwYl9ZCn5K-5" target="honk8JcK8nrwYl9ZCn5K-32" edge="1">
          <mxGeometry relative="1" as="geometry">
            <mxPoint x="334.5" y="478" as="sourcePoint" />
            <mxPoint x="520" y="360" as="targetPoint" />
            <Array as="points" />
          </mxGeometry>
        </mxCell>
        <mxCell id="honk8JcK8nrwYl9ZCn5K-13" value="" style="endArrow=open;strokeColor=#FF0000;endFill=1;rounded=0;exitX=0.5;exitY=1;exitDx=0;exitDy=0;entryX=0.5;entryY=0;entryDx=0;entryDy=0;" parent="1" source="honk8JcK8nrwYl9ZCn5K-32" target="honk8JcK8nrwYl9ZCn5K-33" edge="1">
          <mxGeometry relative="1" as="geometry">
            <mxPoint x="530" y="437" as="sourcePoint" />
            <mxPoint x="280" y="410" as="targetPoint" />
            <Array as="points">
              <mxPoint x="585" y="410" />
              <mxPoint x="280" y="410" />
            </Array>
          </mxGeometry>
        </mxCell>
        <mxCell id="honk8JcK8nrwYl9ZCn5K-24" value="" style="endArrow=open;strokeColor=#FF0000;endFill=1;rounded=0;exitX=0.5;exitY=1;exitDx=0;exitDy=0;entryX=1;entryY=0.5;entryDx=0;entryDy=0;" parent="1" source="honk8JcK8nrwYl9ZCn5K-19" target="honk8JcK8nrwYl9ZCn5K-9" edge="1">
          <mxGeometry relative="1" as="geometry">
            <mxPoint x="880" y="730" as="sourcePoint" />
            <mxPoint x="845" y="808.6666666666667" as="targetPoint" />
            <Array as="points">
              <mxPoint x="855" y="745" />
            </Array>
          </mxGeometry>
        </mxCell>
        <mxCell id="f_JBropepbeSfBX6f8aN-2" value="" style="endArrow=open;strokeColor=#FF0000;endFill=1;rounded=0;exitX=1;exitY=0.5;exitDx=0;exitDy=0;entryX=0.5;entryY=0;entryDx=0;entryDy=0;" edge="1" parent="1" source="honk8JcK8nrwYl9ZCn5K-33" target="f_JBropepbeSfBX6f8aN-1">
          <mxGeometry relative="1" as="geometry">
            <mxPoint x="600" y="470" as="sourcePoint" />
            <mxPoint x="890" y="465" as="targetPoint" />
            <Array as="points">
              <mxPoint x="855" y="505" />
            </Array>
          </mxGeometry>
        </mxCell>
      </root>
    </mxGraphModel>
  </diagram>
</mxfile>
